<mxfile host="app.diagrams.net" agent="Mozilla/5.0 (Windows NT 10.0; Win64; x64) AppleWebKit/537.36 (KHTML, like Gecko) Chrome/129.0.0.0 Safari/537.36" version="24.8.6">
  <diagram name="Trang-1" id="O9FfTroHq7hf1Xr2tHR-">
    <mxGraphModel dx="1185" dy="2655" grid="1" gridSize="10" guides="1" tooltips="1" connect="1" arrows="1" fold="1" page="1" pageScale="1" pageWidth="1654" pageHeight="2336" math="0" shadow="0">
      <root>
        <mxCell id="0" />
        <mxCell id="1" parent="0" />
        <mxCell id="uWJ7i_EV35w1RTQN1lhU-1" value="" style="ellipse;whiteSpace=wrap;html=1;aspect=fixed;fillColor=#f8cecc;strokeColor=#b85450;" vertex="1" parent="1">
          <mxGeometry x="720" y="760" width="80" height="80" as="geometry" />
        </mxCell>
        <mxCell id="uWJ7i_EV35w1RTQN1lhU-2" value="" style="ellipse;whiteSpace=wrap;html=1;aspect=fixed;fillColor=#f8cecc;strokeColor=#b85450;" vertex="1" parent="1">
          <mxGeometry x="720" y="920" width="80" height="80" as="geometry" />
        </mxCell>
        <mxCell id="uWJ7i_EV35w1RTQN1lhU-3" value="" style="ellipse;whiteSpace=wrap;html=1;aspect=fixed;fillColor=#d5e8d4;strokeColor=#82b366;" vertex="1" parent="1">
          <mxGeometry x="940" y="560" width="80" height="80" as="geometry" />
        </mxCell>
        <mxCell id="uWJ7i_EV35w1RTQN1lhU-4" value="" style="ellipse;whiteSpace=wrap;html=1;aspect=fixed;fillColor=#d5e8d4;strokeColor=#82b366;" vertex="1" parent="1">
          <mxGeometry x="940" y="720" width="80" height="80" as="geometry" />
        </mxCell>
        <mxCell id="uWJ7i_EV35w1RTQN1lhU-5" value="" style="ellipse;whiteSpace=wrap;html=1;aspect=fixed;fillColor=#d5e8d4;strokeColor=#82b366;" vertex="1" parent="1">
          <mxGeometry x="940" y="880" width="80" height="80" as="geometry" />
        </mxCell>
        <mxCell id="uWJ7i_EV35w1RTQN1lhU-6" value="" style="ellipse;whiteSpace=wrap;html=1;aspect=fixed;fillColor=#d5e8d4;strokeColor=#82b366;" vertex="1" parent="1">
          <mxGeometry x="940" y="1040" width="80" height="80" as="geometry" />
        </mxCell>
        <mxCell id="uWJ7i_EV35w1RTQN1lhU-7" value="" style="ellipse;whiteSpace=wrap;html=1;aspect=fixed;fillColor=#d5e8d4;strokeColor=#82b366;" vertex="1" parent="1">
          <mxGeometry x="1150" y="490" width="80" height="80" as="geometry" />
        </mxCell>
        <mxCell id="uWJ7i_EV35w1RTQN1lhU-8" value="" style="ellipse;whiteSpace=wrap;html=1;aspect=fixed;fillColor=#d5e8d4;strokeColor=#82b366;" vertex="1" parent="1">
          <mxGeometry x="1150" y="650" width="80" height="80" as="geometry" />
        </mxCell>
        <mxCell id="uWJ7i_EV35w1RTQN1lhU-9" value="" style="ellipse;whiteSpace=wrap;html=1;aspect=fixed;fillColor=#d5e8d4;strokeColor=#82b366;" vertex="1" parent="1">
          <mxGeometry x="1150" y="810" width="80" height="80" as="geometry" />
        </mxCell>
        <mxCell id="uWJ7i_EV35w1RTQN1lhU-10" value="" style="ellipse;whiteSpace=wrap;html=1;aspect=fixed;fillColor=#d5e8d4;strokeColor=#82b366;" vertex="1" parent="1">
          <mxGeometry x="1150" y="970" width="80" height="80" as="geometry" />
        </mxCell>
        <mxCell id="uWJ7i_EV35w1RTQN1lhU-11" value="" style="ellipse;whiteSpace=wrap;html=1;aspect=fixed;fillColor=#d5e8d4;strokeColor=#82b366;" vertex="1" parent="1">
          <mxGeometry x="1150" y="1110" width="80" height="80" as="geometry" />
        </mxCell>
        <mxCell id="uWJ7i_EV35w1RTQN1lhU-12" value="" style="ellipse;whiteSpace=wrap;html=1;aspect=fixed;fillColor=#dae8fc;strokeColor=#6c8ebf;" vertex="1" parent="1">
          <mxGeometry x="1370" y="830" width="80" height="80" as="geometry" />
        </mxCell>
        <mxCell id="uWJ7i_EV35w1RTQN1lhU-14" value="Lớp ngõ vào" style="swimlane;whiteSpace=wrap;html=1;fillColor=#f8cecc;strokeColor=#b85450;" vertex="1" parent="1">
          <mxGeometry x="675" y="700" width="170" height="340" as="geometry" />
        </mxCell>
        <mxCell id="uWJ7i_EV35w1RTQN1lhU-15" value="Lớp ẩn 1" style="swimlane;whiteSpace=wrap;html=1;fillColor=#d5e8d4;strokeColor=#82b366;" vertex="1" parent="1">
          <mxGeometry x="895" y="520" width="170" height="640" as="geometry" />
        </mxCell>
        <mxCell id="uWJ7i_EV35w1RTQN1lhU-16" value="Lớp ẩn 2" style="swimlane;whiteSpace=wrap;html=1;fillColor=#d5e8d4;strokeColor=#82b366;" vertex="1" parent="1">
          <mxGeometry x="1105" y="450" width="170" height="790" as="geometry" />
        </mxCell>
        <mxCell id="uWJ7i_EV35w1RTQN1lhU-17" value="Lớp ngõ ra" style="swimlane;whiteSpace=wrap;html=1;startSize=23;fillColor=#dae8fc;strokeColor=#6c8ebf;" vertex="1" parent="1">
          <mxGeometry x="1325" y="740" width="170" height="220" as="geometry" />
        </mxCell>
        <mxCell id="uWJ7i_EV35w1RTQN1lhU-19" value="" style="endArrow=classic;html=1;rounded=0;exitX=1;exitY=0.5;exitDx=0;exitDy=0;entryX=0;entryY=0.5;entryDx=0;entryDy=0;" edge="1" parent="1" source="uWJ7i_EV35w1RTQN1lhU-1" target="uWJ7i_EV35w1RTQN1lhU-3">
          <mxGeometry width="50" height="50" relative="1" as="geometry">
            <mxPoint x="930" y="840" as="sourcePoint" />
            <mxPoint x="980" y="790" as="targetPoint" />
          </mxGeometry>
        </mxCell>
        <mxCell id="uWJ7i_EV35w1RTQN1lhU-20" value="" style="endArrow=classic;html=1;rounded=0;entryX=0;entryY=0.5;entryDx=0;entryDy=0;" edge="1" parent="1" target="uWJ7i_EV35w1RTQN1lhU-4">
          <mxGeometry width="50" height="50" relative="1" as="geometry">
            <mxPoint x="800" y="800" as="sourcePoint" />
            <mxPoint x="950" y="610" as="targetPoint" />
          </mxGeometry>
        </mxCell>
        <mxCell id="uWJ7i_EV35w1RTQN1lhU-21" value="" style="endArrow=classic;html=1;rounded=0;entryX=0;entryY=0.5;entryDx=0;entryDy=0;" edge="1" parent="1" target="uWJ7i_EV35w1RTQN1lhU-5">
          <mxGeometry width="50" height="50" relative="1" as="geometry">
            <mxPoint x="800" y="800" as="sourcePoint" />
            <mxPoint x="950" y="770" as="targetPoint" />
          </mxGeometry>
        </mxCell>
        <mxCell id="uWJ7i_EV35w1RTQN1lhU-22" value="" style="endArrow=classic;html=1;rounded=0;exitX=1;exitY=0.5;exitDx=0;exitDy=0;" edge="1" parent="1" source="uWJ7i_EV35w1RTQN1lhU-1">
          <mxGeometry width="50" height="50" relative="1" as="geometry">
            <mxPoint x="810" y="810" as="sourcePoint" />
            <mxPoint x="940" y="1080.6667073567708" as="targetPoint" />
          </mxGeometry>
        </mxCell>
        <mxCell id="uWJ7i_EV35w1RTQN1lhU-23" value="" style="endArrow=classic;html=1;rounded=0;exitX=1;exitY=0.5;exitDx=0;exitDy=0;" edge="1" parent="1" source="uWJ7i_EV35w1RTQN1lhU-2">
          <mxGeometry width="50" height="50" relative="1" as="geometry">
            <mxPoint x="810" y="810" as="sourcePoint" />
            <mxPoint x="940" y="1080" as="targetPoint" />
          </mxGeometry>
        </mxCell>
        <mxCell id="uWJ7i_EV35w1RTQN1lhU-24" value="" style="endArrow=classic;html=1;rounded=0;entryX=0;entryY=0.5;entryDx=0;entryDy=0;" edge="1" parent="1" target="uWJ7i_EV35w1RTQN1lhU-5">
          <mxGeometry width="50" height="50" relative="1" as="geometry">
            <mxPoint x="800" y="960" as="sourcePoint" />
            <mxPoint x="950" y="1090" as="targetPoint" />
          </mxGeometry>
        </mxCell>
        <mxCell id="uWJ7i_EV35w1RTQN1lhU-25" value="" style="endArrow=classic;html=1;rounded=0;entryX=0;entryY=0.5;entryDx=0;entryDy=0;exitX=1;exitY=0.5;exitDx=0;exitDy=0;" edge="1" parent="1" source="uWJ7i_EV35w1RTQN1lhU-2" target="uWJ7i_EV35w1RTQN1lhU-4">
          <mxGeometry width="50" height="50" relative="1" as="geometry">
            <mxPoint x="810" y="970" as="sourcePoint" />
            <mxPoint x="950" y="930" as="targetPoint" />
          </mxGeometry>
        </mxCell>
        <mxCell id="uWJ7i_EV35w1RTQN1lhU-26" value="" style="endArrow=classic;html=1;rounded=0;entryX=0;entryY=0.5;entryDx=0;entryDy=0;" edge="1" parent="1" target="uWJ7i_EV35w1RTQN1lhU-3">
          <mxGeometry width="50" height="50" relative="1" as="geometry">
            <mxPoint x="800" y="960" as="sourcePoint" />
            <mxPoint x="950" y="770" as="targetPoint" />
          </mxGeometry>
        </mxCell>
        <mxCell id="uWJ7i_EV35w1RTQN1lhU-27" value="" style="endArrow=classic;html=1;rounded=0;exitX=1;exitY=0.5;exitDx=0;exitDy=0;entryX=0;entryY=0.5;entryDx=0;entryDy=0;" edge="1" parent="1" source="uWJ7i_EV35w1RTQN1lhU-3" target="uWJ7i_EV35w1RTQN1lhU-7">
          <mxGeometry width="50" height="50" relative="1" as="geometry">
            <mxPoint x="810" y="810" as="sourcePoint" />
            <mxPoint x="950" y="610" as="targetPoint" />
          </mxGeometry>
        </mxCell>
        <mxCell id="uWJ7i_EV35w1RTQN1lhU-28" value="" style="endArrow=classic;html=1;rounded=0;exitX=1;exitY=0.5;exitDx=0;exitDy=0;entryX=0;entryY=0.5;entryDx=0;entryDy=0;" edge="1" parent="1" source="uWJ7i_EV35w1RTQN1lhU-3" target="uWJ7i_EV35w1RTQN1lhU-8">
          <mxGeometry width="50" height="50" relative="1" as="geometry">
            <mxPoint x="1030" y="610" as="sourcePoint" />
            <mxPoint x="1160" y="540" as="targetPoint" />
          </mxGeometry>
        </mxCell>
        <mxCell id="uWJ7i_EV35w1RTQN1lhU-29" value="" style="endArrow=classic;html=1;rounded=0;entryX=0;entryY=0.5;entryDx=0;entryDy=0;" edge="1" parent="1" target="uWJ7i_EV35w1RTQN1lhU-9">
          <mxGeometry width="50" height="50" relative="1" as="geometry">
            <mxPoint x="1020" y="600" as="sourcePoint" />
            <mxPoint x="1160" y="700" as="targetPoint" />
          </mxGeometry>
        </mxCell>
        <mxCell id="uWJ7i_EV35w1RTQN1lhU-30" value="" style="endArrow=classic;html=1;rounded=0;entryX=0;entryY=0.5;entryDx=0;entryDy=0;" edge="1" parent="1" target="uWJ7i_EV35w1RTQN1lhU-10">
          <mxGeometry width="50" height="50" relative="1" as="geometry">
            <mxPoint x="1020" y="600" as="sourcePoint" />
            <mxPoint x="1160" y="860" as="targetPoint" />
          </mxGeometry>
        </mxCell>
        <mxCell id="uWJ7i_EV35w1RTQN1lhU-31" value="" style="endArrow=classic;html=1;rounded=0;entryX=0;entryY=0.5;entryDx=0;entryDy=0;" edge="1" parent="1" target="uWJ7i_EV35w1RTQN1lhU-11">
          <mxGeometry width="50" height="50" relative="1" as="geometry">
            <mxPoint x="1020" y="600" as="sourcePoint" />
            <mxPoint x="1160" y="1020" as="targetPoint" />
          </mxGeometry>
        </mxCell>
        <mxCell id="uWJ7i_EV35w1RTQN1lhU-32" value="" style="endArrow=classic;html=1;rounded=0;entryX=0;entryY=0.5;entryDx=0;entryDy=0;exitX=1;exitY=0.5;exitDx=0;exitDy=0;" edge="1" parent="1" source="uWJ7i_EV35w1RTQN1lhU-4" target="uWJ7i_EV35w1RTQN1lhU-10">
          <mxGeometry width="50" height="50" relative="1" as="geometry">
            <mxPoint x="1030" y="610" as="sourcePoint" />
            <mxPoint x="1160" y="1160" as="targetPoint" />
          </mxGeometry>
        </mxCell>
        <mxCell id="uWJ7i_EV35w1RTQN1lhU-33" value="" style="endArrow=classic;html=1;rounded=0;entryX=0;entryY=0.5;entryDx=0;entryDy=0;" edge="1" parent="1" target="uWJ7i_EV35w1RTQN1lhU-9">
          <mxGeometry width="50" height="50" relative="1" as="geometry">
            <mxPoint x="1020" y="760" as="sourcePoint" />
            <mxPoint x="1160" y="1020" as="targetPoint" />
          </mxGeometry>
        </mxCell>
        <mxCell id="uWJ7i_EV35w1RTQN1lhU-34" value="" style="endArrow=classic;html=1;rounded=0;entryX=0;entryY=0.5;entryDx=0;entryDy=0;" edge="1" parent="1" target="uWJ7i_EV35w1RTQN1lhU-11">
          <mxGeometry width="50" height="50" relative="1" as="geometry">
            <mxPoint x="1020" y="760" as="sourcePoint" />
            <mxPoint x="1160" y="860" as="targetPoint" />
          </mxGeometry>
        </mxCell>
        <mxCell id="uWJ7i_EV35w1RTQN1lhU-35" value="" style="endArrow=classic;html=1;rounded=0;entryX=0;entryY=0.5;entryDx=0;entryDy=0;" edge="1" parent="1" target="uWJ7i_EV35w1RTQN1lhU-8">
          <mxGeometry width="50" height="50" relative="1" as="geometry">
            <mxPoint x="1020" y="760" as="sourcePoint" />
            <mxPoint x="1160" y="1160" as="targetPoint" />
          </mxGeometry>
        </mxCell>
        <mxCell id="uWJ7i_EV35w1RTQN1lhU-36" value="" style="endArrow=classic;html=1;rounded=0;" edge="1" parent="1">
          <mxGeometry width="50" height="50" relative="1" as="geometry">
            <mxPoint x="1020" y="760" as="sourcePoint" />
            <mxPoint x="1150" y="530" as="targetPoint" />
          </mxGeometry>
        </mxCell>
        <mxCell id="uWJ7i_EV35w1RTQN1lhU-37" value="" style="endArrow=classic;html=1;rounded=0;exitX=1;exitY=0.5;exitDx=0;exitDy=0;entryX=-0.01;entryY=0.557;entryDx=0;entryDy=0;entryPerimeter=0;" edge="1" parent="1" source="uWJ7i_EV35w1RTQN1lhU-5" target="uWJ7i_EV35w1RTQN1lhU-7">
          <mxGeometry width="50" height="50" relative="1" as="geometry">
            <mxPoint x="1030" y="770" as="sourcePoint" />
            <mxPoint x="1160" y="540" as="targetPoint" />
          </mxGeometry>
        </mxCell>
        <mxCell id="uWJ7i_EV35w1RTQN1lhU-38" value="" style="endArrow=classic;html=1;rounded=0;entryX=0;entryY=0.5;entryDx=0;entryDy=0;" edge="1" parent="1" target="uWJ7i_EV35w1RTQN1lhU-8">
          <mxGeometry width="50" height="50" relative="1" as="geometry">
            <mxPoint x="1020" y="920" as="sourcePoint" />
            <mxPoint x="1170" y="550" as="targetPoint" />
          </mxGeometry>
        </mxCell>
        <mxCell id="uWJ7i_EV35w1RTQN1lhU-39" value="" style="endArrow=classic;html=1;rounded=0;entryX=0;entryY=0.5;entryDx=0;entryDy=0;" edge="1" parent="1" target="uWJ7i_EV35w1RTQN1lhU-9">
          <mxGeometry width="50" height="50" relative="1" as="geometry">
            <mxPoint x="1020" y="920" as="sourcePoint" />
            <mxPoint x="1160" y="700" as="targetPoint" />
          </mxGeometry>
        </mxCell>
        <mxCell id="uWJ7i_EV35w1RTQN1lhU-40" value="" style="endArrow=classic;html=1;rounded=0;exitX=1;exitY=0.5;exitDx=0;exitDy=0;" edge="1" parent="1" source="uWJ7i_EV35w1RTQN1lhU-5">
          <mxGeometry width="50" height="50" relative="1" as="geometry">
            <mxPoint x="1030" y="930" as="sourcePoint" />
            <mxPoint x="1150" y="1010" as="targetPoint" />
          </mxGeometry>
        </mxCell>
        <mxCell id="uWJ7i_EV35w1RTQN1lhU-41" value="" style="endArrow=classic;html=1;rounded=0;entryX=0;entryY=0.5;entryDx=0;entryDy=0;" edge="1" parent="1" target="uWJ7i_EV35w1RTQN1lhU-11">
          <mxGeometry width="50" height="50" relative="1" as="geometry">
            <mxPoint x="1020" y="920" as="sourcePoint" />
            <mxPoint x="1160" y="1020" as="targetPoint" />
          </mxGeometry>
        </mxCell>
        <mxCell id="uWJ7i_EV35w1RTQN1lhU-42" value="" style="endArrow=classic;html=1;rounded=0;entryX=0;entryY=0.5;entryDx=0;entryDy=0;exitX=1;exitY=0.5;exitDx=0;exitDy=0;" edge="1" parent="1" source="uWJ7i_EV35w1RTQN1lhU-6" target="uWJ7i_EV35w1RTQN1lhU-11">
          <mxGeometry width="50" height="50" relative="1" as="geometry">
            <mxPoint x="1030" y="930" as="sourcePoint" />
            <mxPoint x="1160" y="1160" as="targetPoint" />
          </mxGeometry>
        </mxCell>
        <mxCell id="uWJ7i_EV35w1RTQN1lhU-43" value="" style="endArrow=classic;html=1;rounded=0;entryX=0;entryY=0.5;entryDx=0;entryDy=0;exitX=1;exitY=0.5;exitDx=0;exitDy=0;" edge="1" parent="1" source="uWJ7i_EV35w1RTQN1lhU-6" target="uWJ7i_EV35w1RTQN1lhU-10">
          <mxGeometry width="50" height="50" relative="1" as="geometry">
            <mxPoint x="1030" y="1090" as="sourcePoint" />
            <mxPoint x="1160" y="1160" as="targetPoint" />
          </mxGeometry>
        </mxCell>
        <mxCell id="uWJ7i_EV35w1RTQN1lhU-44" value="" style="endArrow=classic;html=1;rounded=0;entryX=0.003;entryY=0.583;entryDx=0;entryDy=0;exitX=1;exitY=0.5;exitDx=0;exitDy=0;entryPerimeter=0;" edge="1" parent="1" source="uWJ7i_EV35w1RTQN1lhU-6" target="uWJ7i_EV35w1RTQN1lhU-9">
          <mxGeometry width="50" height="50" relative="1" as="geometry">
            <mxPoint x="1030" y="1090" as="sourcePoint" />
            <mxPoint x="1160" y="1020" as="targetPoint" />
          </mxGeometry>
        </mxCell>
        <mxCell id="uWJ7i_EV35w1RTQN1lhU-45" value="" style="endArrow=classic;html=1;rounded=0;entryX=0;entryY=0.5;entryDx=0;entryDy=0;exitX=1;exitY=0.5;exitDx=0;exitDy=0;" edge="1" parent="1" source="uWJ7i_EV35w1RTQN1lhU-6" target="uWJ7i_EV35w1RTQN1lhU-8">
          <mxGeometry width="50" height="50" relative="1" as="geometry">
            <mxPoint x="1030" y="1090" as="sourcePoint" />
            <mxPoint x="1160" y="867" as="targetPoint" />
          </mxGeometry>
        </mxCell>
        <mxCell id="uWJ7i_EV35w1RTQN1lhU-46" value="" style="endArrow=classic;html=1;rounded=0;entryX=0;entryY=0.5;entryDx=0;entryDy=0;" edge="1" parent="1" target="uWJ7i_EV35w1RTQN1lhU-7">
          <mxGeometry width="50" height="50" relative="1" as="geometry">
            <mxPoint x="1020" y="1080" as="sourcePoint" />
            <mxPoint x="1160" y="700" as="targetPoint" />
          </mxGeometry>
        </mxCell>
        <mxCell id="uWJ7i_EV35w1RTQN1lhU-47" value="" style="endArrow=classic;html=1;rounded=0;exitX=1;exitY=0.5;exitDx=0;exitDy=0;entryX=0;entryY=0.5;entryDx=0;entryDy=0;" edge="1" parent="1" source="uWJ7i_EV35w1RTQN1lhU-7" target="uWJ7i_EV35w1RTQN1lhU-12">
          <mxGeometry width="50" height="50" relative="1" as="geometry">
            <mxPoint x="1030" y="610" as="sourcePoint" />
            <mxPoint x="1160" y="540" as="targetPoint" />
          </mxGeometry>
        </mxCell>
        <mxCell id="uWJ7i_EV35w1RTQN1lhU-48" value="" style="endArrow=classic;html=1;rounded=0;exitX=1;exitY=0.5;exitDx=0;exitDy=0;entryX=0;entryY=0.5;entryDx=0;entryDy=0;" edge="1" parent="1" source="uWJ7i_EV35w1RTQN1lhU-8" target="uWJ7i_EV35w1RTQN1lhU-12">
          <mxGeometry width="50" height="50" relative="1" as="geometry">
            <mxPoint x="1240" y="540" as="sourcePoint" />
            <mxPoint x="1380" y="880" as="targetPoint" />
          </mxGeometry>
        </mxCell>
        <mxCell id="uWJ7i_EV35w1RTQN1lhU-50" value="" style="endArrow=classic;html=1;rounded=0;exitX=1;exitY=0.5;exitDx=0;exitDy=0;entryX=0;entryY=0.5;entryDx=0;entryDy=0;" edge="1" parent="1" source="uWJ7i_EV35w1RTQN1lhU-9" target="uWJ7i_EV35w1RTQN1lhU-12">
          <mxGeometry width="50" height="50" relative="1" as="geometry">
            <mxPoint x="1240" y="700" as="sourcePoint" />
            <mxPoint x="1390" y="890" as="targetPoint" />
          </mxGeometry>
        </mxCell>
        <mxCell id="uWJ7i_EV35w1RTQN1lhU-51" value="" style="endArrow=classic;html=1;rounded=0;exitX=1;exitY=0.5;exitDx=0;exitDy=0;entryX=0;entryY=0.5;entryDx=0;entryDy=0;" edge="1" parent="1" source="uWJ7i_EV35w1RTQN1lhU-10" target="uWJ7i_EV35w1RTQN1lhU-12">
          <mxGeometry width="50" height="50" relative="1" as="geometry">
            <mxPoint x="1240" y="860" as="sourcePoint" />
            <mxPoint x="1400" y="900" as="targetPoint" />
          </mxGeometry>
        </mxCell>
        <mxCell id="uWJ7i_EV35w1RTQN1lhU-52" value="" style="endArrow=classic;html=1;rounded=0;exitX=1;exitY=0.5;exitDx=0;exitDy=0;entryX=0;entryY=0.5;entryDx=0;entryDy=0;" edge="1" parent="1" source="uWJ7i_EV35w1RTQN1lhU-11" target="uWJ7i_EV35w1RTQN1lhU-12">
          <mxGeometry width="50" height="50" relative="1" as="geometry">
            <mxPoint x="1240" y="1020" as="sourcePoint" />
            <mxPoint x="1380" y="880" as="targetPoint" />
          </mxGeometry>
        </mxCell>
      </root>
    </mxGraphModel>
  </diagram>
</mxfile>
